<svg width="143" height="143" viewBox="0 0 143 143" fill="none" xmlns="http://www.w3.org/2000/svg">
<rect width="143" height="143" rx="15" fill="#234565"/>
<path fill-rule="evenodd" clip-rule="evenodd" d="M37.912 81.0881C36.376 84.9281 35.608 89.2001 35.608 93.9041C35.608 98.2241 36.28 102.304 37.624 106.144C39.064 109.984 41.08 113.344 43.672 116.224C46.36 119.008 49.576 121.264 53.32 122.992C57.16 124.624 61.48 125.44 66.28 125.44C69.16 125.44 71.704 125.152 73.912 124.576C76.216 124 78.232 123.232 79.96 122.272C81.688 121.312 83.176 120.304 84.424 119.248C85.768 118.096 86.92 116.944 87.88 115.792C87.88 116.272 87.832 116.896 87.736 117.664C87.64 118.336 87.592 118.96 87.592 119.536V124H99.976V12.1121H87.592V72.5921C87.016 71.6321 86.152 70.5281 85 69.2801C83.848 68.0321 82.408 66.9281 80.68 65.9681C79.048 64.9121 77.032 64.0481 74.632 63.3761C72.328 62.6081 69.688 62.2241 66.712 62.2241C62.296 62.2241 58.168 62.9921 54.328 64.5281C50.584 66.0641 47.32 68.2241 44.536 71.0081C41.752 73.7921 39.544 77.1521 37.912 81.0881ZM49.432 101.536C48.472 99.1361 47.992 96.5441 47.992 93.7601C47.992 90.9761 48.472 88.4321 49.432 86.1281C50.488 83.7281 51.88 81.6641 53.608 79.9361C55.336 78.2081 57.4 76.8641 59.8 75.9041C62.2 74.8481 64.84 74.3201 67.72 74.3201C70.6 74.3201 73.24 74.8481 75.64 75.9041C78.136 76.8641 80.248 78.2081 81.976 79.9361C83.8 81.6641 85.192 83.7281 86.152 86.1281C87.112 88.4321 87.592 90.9761 87.592 93.7601C87.592 96.5441 87.112 99.1361 86.152 101.536C85.192 103.84 83.8 105.904 81.976 107.728C80.248 109.456 78.136 110.848 75.64 111.904C73.24 112.864 70.6 113.344 67.72 113.344C64.84 113.344 62.2 112.864 59.8 111.904C57.4 110.848 55.336 109.456 53.608 107.728C51.88 106 50.488 103.936 49.432 101.536Z" fill="#DCB142"/>
</svg>
